# xmcd
#
# Track frame offsets:
#	150
#	9175
#	17810
#	29980
#	37020
#	44377
#	56995
#	67050
#	76677
#	83342
#	94217
#	104925
#	115802
#	126765
#	137490
#	151855
#	162612
#	177717
#	189105
#	203232
#	214080
#	230772
#	242965
#	254365
#	265532
#	275197
#	288502
#	301480
#	318375
#	327810
#
# Disc length: 4555 seconds
#
# Revision: 2
# Processed by: cddbd v1.5.2PL0 Copyright (c) Steve Scherf et al.
# Submitted via: EasyCDDAExtractor 8.2.3.1
#
DISCID=bd11c91e
DTITLE=The Osborne Brothers - The Osborne Brothers 1956-68 Vol2
DYEAR=1900
DGENRE=Country
TTITLE0=Big Ben
TTITLE1=Billy In The Lowground
TTITLE2=John Henry Blues
TTITLE3=Banjo Boy Chimes
TTITLE4=Walking Cane
TTITLE5=Red Wing
TTITLE6=Seeing Nellie Home
TTITLE7=Jesse James
TTITLE8=Cumberland Gap
TTITLE9=Lost Indian
TTITLE10=Poor Old Cora
TTITLE11=Five Days Of Heaven
TTITLE12=Ain't Gonna Rain No Mo'
TTITLE13=The Banjo Boys
TTITLE14=Send Me The Pillow That You Dream On
TTITLE15=Worried Man Blues
TTITLE16=May You Never Be Alone
TTITLE17=New Partner Waltz
TTITLE18=How's The World Treating You
TTITLE19=Night Train To Memphis
TTITLE20=Mule Skinner Blues
TTITLE21=White Lightnin'
TTITLE22=Bluegrass Music's Really Gone To Town
TTITLE23=Lovey Told Me Goodbye
TTITLE24=Ballad Of Jed Clampett
TTITLE25=Memories Never Die
TTITLE26=Mule Train
TTITLE27=Ruby Are You Mad-
TTITLE28=Sourwood Mountain
TTITLE29=Sweet Thing
EXTD=
EXTT0=
EXTT1=
EXTT2=
EXTT3=
EXTT4=
EXTT5=
EXTT6=
EXTT7=
EXTT8=
EXTT9=
EXTT10=
EXTT11=
EXTT12=
EXTT13=
EXTT14=
EXTT15=
EXTT16=
EXTT17=
EXTT18=
EXTT19=
EXTT20=
EXTT21=
EXTT22=
EXTT23=
EXTT24=
EXTT25=
EXTT26=
EXTT27=
EXTT28=
EXTT29=
PLAYORDER=
